<svg xmlns="http://www.w3.org/2000/svg" width="133" height="177" viewBox="0 0 133 177">
  <defs>
    <style>
      .cls-1 {
        fill: #fff;
        fill-rule: evenodd;
      }
    </style>
  </defs>
  <path class="cls-1" d="M647.5,5224.99a66.449,66.449,0,0,0-66.5,66.39c0,27.75,55.444,110.69,66.5,110.63,10.883,0.06,66.5-83.25,66.5-110.63A66.449,66.449,0,0,0,647.5,5224.99Zm0,160.43c-9.214.04-55.417-70.92-55.417-94.04a55.417,55.417,0,0,1,110.834,0C702.917,5314.19,656.57,5385.46,647.5,5385.42Zm0-121.7a27.655,27.655,0,1,0,27.708,27.66A27.682,27.682,0,0,0,647.5,5263.72Zm0,44.25a16.6,16.6,0,1,1,16.625-16.59A16.61,16.61,0,0,1,647.5,5307.97Z" transform="translate(-581 -5225)"/>
</svg>
